<svg width="21" height="21" viewBox="0 0 21 21" fill="none" xmlns="http://www.w3.org/2000/svg">
<path fill-rule="evenodd" clip-rule="evenodd" d="M14.3374 0.577557C14.9878 0.577557 15.6372 0.669295 16.2546 0.876478C20.0591 2.11339 21.4301 6.28798 20.2849 9.93688C19.6355 11.8015 18.5738 13.5033 17.1833 14.8938C15.1929 16.8213 13.0087 18.5324 10.6576 20.0064L10.3999 20.162L10.1319 19.9961C7.77245 18.5324 5.57589 16.8213 3.56694 14.8835C2.18572 13.493 1.123 11.8015 0.463313 9.93688C-0.701449 6.28798 0.669466 2.11339 4.51524 0.854832C4.81416 0.751756 5.12236 0.679603 5.43159 0.639403H5.55528C5.84492 0.597142 6.13251 0.577557 6.42112 0.577557H6.5345C7.18388 0.597142 7.81265 0.710525 8.42183 0.917709H8.48264C8.52387 0.937293 8.5548 0.958939 8.57541 0.978524C8.80321 1.05171 9.01864 1.13417 9.22479 1.24755L9.61648 1.42278C9.71113 1.47326 9.81736 1.55039 9.90918 1.61705C9.96735 1.65929 10.0197 1.69732 10.0597 1.7217C10.0765 1.73163 10.0936 1.74161 10.1109 1.75167C10.1992 1.80326 10.2913 1.857 10.3689 1.91652C11.5141 1.0414 12.9046 0.56725 14.3374 0.577557ZM17.0792 7.99906C17.5018 7.98772 17.8626 7.6486 17.8935 7.21465V7.09199C17.9244 5.64789 17.0493 4.33985 15.7186 3.83478C15.296 3.68944 14.8321 3.91724 14.6775 4.35016C14.5332 4.78308 14.76 5.25723 15.1929 5.41082C15.8536 5.6582 16.2958 6.30861 16.2958 7.02911V7.06107C16.2762 7.29711 16.3474 7.52491 16.4917 7.70014C16.636 7.87537 16.8524 7.97742 17.0792 7.99906Z" fill="#F32D12"/>
<path fill-rule="evenodd" clip-rule="evenodd" d="M14.3374 0.577557C14.9878 0.577557 15.6372 0.669295 16.2546 0.876478C20.0591 2.11339 21.4301 6.28798 20.2849 9.93688C19.6355 11.8015 18.5738 13.5033 17.1833 14.8938C15.1929 16.8213 13.0087 18.5324 10.6576 20.0064L10.3999 20.162L10.1319 19.9961C7.77245 18.5324 5.57589 16.8213 3.56694 14.8835C2.18572 13.493 1.123 11.8015 0.463313 9.93688C-0.701449 6.28798 0.669466 2.11339 4.51524 0.854832C4.81416 0.751756 5.12236 0.679603 5.43159 0.639403H5.55528C5.84492 0.597142 6.13251 0.577557 6.42112 0.577557H6.5345C7.18388 0.597142 7.81265 0.710525 8.42183 0.917709H8.48264C8.52387 0.937293 8.5548 0.958939 8.57541 0.978524C8.80321 1.05171 9.01864 1.13417 9.22479 1.24755L9.61648 1.42278C9.71113 1.47326 9.81736 1.55039 9.90918 1.61705C9.96735 1.65929 10.0197 1.69732 10.0597 1.7217C10.0765 1.73163 10.0936 1.74161 10.1109 1.75167C10.1992 1.80326 10.2913 1.857 10.3689 1.91652C11.5141 1.0414 12.9046 0.56725 14.3374 0.577557ZM17.0792 7.99906C17.5018 7.98772 17.8626 7.6486 17.8935 7.21465V7.09199C17.9244 5.64789 17.0493 4.33985 15.7186 3.83478C15.296 3.68944 14.8321 3.91724 14.6775 4.35016C14.5332 4.78308 14.76 5.25723 15.1929 5.41082C15.8536 5.6582 16.2958 6.30861 16.2958 7.02911V7.06107C16.2762 7.29711 16.3474 7.52491 16.4917 7.70014C16.636 7.87537 16.8524 7.97742 17.0792 7.99906Z" fill="#130F26"/>
<path fill-rule="evenodd" clip-rule="evenodd" d="M14.3374 0.577557C14.9878 0.577557 15.6372 0.669295 16.2546 0.876478C20.0591 2.11339 21.4301 6.28798 20.2849 9.93688C19.6355 11.8015 18.5738 13.5033 17.1833 14.8938C15.1929 16.8213 13.0087 18.5324 10.6576 20.0064L10.3999 20.162L10.1319 19.9961C7.77245 18.5324 5.57589 16.8213 3.56694 14.8835C2.18572 13.493 1.123 11.8015 0.463313 9.93688C-0.701449 6.28798 0.669466 2.11339 4.51524 0.854832C4.81416 0.751756 5.12236 0.679603 5.43159 0.639403H5.55528C5.84492 0.597142 6.13251 0.577557 6.42112 0.577557H6.5345C7.18388 0.597142 7.81265 0.710525 8.42183 0.917709H8.48264C8.52387 0.937293 8.5548 0.958939 8.57541 0.978524C8.80321 1.05171 9.01864 1.13417 9.22479 1.24755L9.61648 1.42278C9.71113 1.47326 9.81736 1.55039 9.90918 1.61705C9.96735 1.65929 10.0197 1.69732 10.0597 1.7217C10.0765 1.73163 10.0936 1.74161 10.1109 1.75167C10.1992 1.80326 10.2913 1.857 10.3689 1.91652C11.5141 1.0414 12.9046 0.56725 14.3374 0.577557ZM17.0792 7.99906C17.5018 7.98772 17.8626 7.6486 17.8935 7.21465V7.09199C17.9244 5.64789 17.0493 4.33985 15.7186 3.83478C15.296 3.68944 14.8321 3.91724 14.6775 4.35016C14.5332 4.78308 14.76 5.25723 15.1929 5.41082C15.8536 5.6582 16.2958 6.30861 16.2958 7.02911V7.06107C16.2762 7.29711 16.3474 7.52491 16.4917 7.70014C16.636 7.87537 16.8524 7.97742 17.0792 7.99906Z" fill="white" fill-opacity="0.86"/>
</svg>
