<svg width="21" height="21" viewBox="0 0 21 21" fill="none" xmlns="http://www.w3.org/2000/svg">
<path fill-rule="evenodd" clip-rule="evenodd" d="M14.3374 0.577618C14.9878 0.577618 15.6372 0.669356 16.2546 0.876539C20.0591 2.11345 21.4301 6.28804 20.2849 9.93694C19.6355 11.8016 18.5738 13.5034 17.1833 14.8939C15.1929 16.8214 13.0087 18.5325 10.6576 20.0065L10.3999 20.1621L10.1319 19.9961C7.77245 18.5325 5.57589 16.8214 3.56694 14.8836C2.18572 13.4931 1.123 11.8016 0.463313 9.93694C-0.701449 6.28804 0.669466 2.11345 4.51524 0.854893C4.81416 0.751817 5.12236 0.679664 5.43159 0.639464H5.55528C5.84492 0.597203 6.13251 0.577618 6.42112 0.577618H6.5345C7.18388 0.597203 7.81265 0.710587 8.42183 0.91777H8.48264C8.52387 0.937354 8.5548 0.959 8.57541 0.978585C8.80321 1.05177 9.01864 1.13423 9.22479 1.24761L9.61648 1.42284C9.71113 1.47332 9.81736 1.55045 9.90918 1.61711C9.96735 1.65935 10.0197 1.69738 10.0597 1.72176C10.0765 1.73169 10.0936 1.74167 10.1109 1.75173C10.1992 1.80332 10.2913 1.85706 10.3689 1.91658C11.5141 1.04146 12.9046 0.567311 14.3374 0.577618ZM17.0792 7.99908C17.5018 7.98775 17.8626 7.64862 17.8935 7.21467V7.09201C17.9244 5.64791 17.0493 4.33988 15.7186 3.8348C15.296 3.68947 14.8321 3.91726 14.6775 4.35018C14.5332 4.7831 14.76 5.25726 15.1929 5.41084C15.8536 5.65822 16.2958 6.30863 16.2958 7.02914V7.06109C16.2762 7.29713 16.3474 7.52493 16.4917 7.70016C16.636 7.87539 16.8524 7.97744 17.0792 7.99908Z" fill="#F32D12"/>
<path fill-rule="evenodd" clip-rule="evenodd" d="M14.3374 0.577618C14.9878 0.577618 15.6372 0.669356 16.2546 0.876539C20.0591 2.11345 21.4301 6.28804 20.2849 9.93694C19.6355 11.8016 18.5738 13.5034 17.1833 14.8939C15.1929 16.8214 13.0087 18.5325 10.6576 20.0065L10.3999 20.1621L10.1319 19.9961C7.77245 18.5325 5.57589 16.8214 3.56694 14.8836C2.18572 13.4931 1.123 11.8016 0.463313 9.93694C-0.701449 6.28804 0.669466 2.11345 4.51524 0.854893C4.81416 0.751817 5.12236 0.679664 5.43159 0.639464H5.55528C5.84492 0.597203 6.13251 0.577618 6.42112 0.577618H6.5345C7.18388 0.597203 7.81265 0.710587 8.42183 0.91777H8.48264C8.52387 0.937354 8.5548 0.959 8.57541 0.978585C8.80321 1.05177 9.01864 1.13423 9.22479 1.24761L9.61648 1.42284C9.71113 1.47332 9.81736 1.55045 9.90918 1.61711C9.96735 1.65935 10.0197 1.69738 10.0597 1.72176C10.0765 1.73169 10.0936 1.74167 10.1109 1.75173C10.1992 1.80332 10.2913 1.85706 10.3689 1.91658C11.5141 1.04146 12.9046 0.567311 14.3374 0.577618ZM17.0792 7.99908C17.5018 7.98775 17.8626 7.64862 17.8935 7.21467V7.09201C17.9244 5.64791 17.0493 4.33988 15.7186 3.8348C15.296 3.68947 14.8321 3.91726 14.6775 4.35018C14.5332 4.7831 14.76 5.25726 15.1929 5.41084C15.8536 5.65822 16.2958 6.30863 16.2958 7.02914V7.06109C16.2762 7.29713 16.3474 7.52493 16.4917 7.70016C16.636 7.87539 16.8524 7.97744 17.0792 7.99908Z" fill="#130F26"/>
<path fill-rule="evenodd" clip-rule="evenodd" d="M14.3374 0.577618C14.9878 0.577618 15.6372 0.669356 16.2546 0.876539C20.0591 2.11345 21.4301 6.28804 20.2849 9.93694C19.6355 11.8016 18.5738 13.5034 17.1833 14.8939C15.1929 16.8214 13.0087 18.5325 10.6576 20.0065L10.3999 20.1621L10.1319 19.9961C7.77245 18.5325 5.57589 16.8214 3.56694 14.8836C2.18572 13.4931 1.123 11.8016 0.463313 9.93694C-0.701449 6.28804 0.669466 2.11345 4.51524 0.854893C4.81416 0.751817 5.12236 0.679664 5.43159 0.639464H5.55528C5.84492 0.597203 6.13251 0.577618 6.42112 0.577618H6.5345C7.18388 0.597203 7.81265 0.710587 8.42183 0.91777H8.48264C8.52387 0.937354 8.5548 0.959 8.57541 0.978585C8.80321 1.05177 9.01864 1.13423 9.22479 1.24761L9.61648 1.42284C9.71113 1.47332 9.81736 1.55045 9.90918 1.61711C9.96735 1.65935 10.0197 1.69738 10.0597 1.72176C10.0765 1.73169 10.0936 1.74167 10.1109 1.75173C10.1992 1.80332 10.2913 1.85706 10.3689 1.91658C11.5141 1.04146 12.9046 0.567311 14.3374 0.577618ZM17.0792 7.99908C17.5018 7.98775 17.8626 7.64862 17.8935 7.21467V7.09201C17.9244 5.64791 17.0493 4.33988 15.7186 3.8348C15.296 3.68947 14.8321 3.91726 14.6775 4.35018C14.5332 4.7831 14.76 5.25726 15.1929 5.41084C15.8536 5.65822 16.2958 6.30863 16.2958 7.02914V7.06109C16.2762 7.29713 16.3474 7.52493 16.4917 7.70016C16.636 7.87539 16.8524 7.97744 17.0792 7.99908Z" fill="white" fill-opacity="0.86"/>
</svg>
