<svg width="15" height="14" viewBox="0 0 15 14" fill="none" xmlns="http://www.w3.org/2000/svg">
<path fill-rule="evenodd" clip-rule="evenodd" d="M8.88569 0.166088C9.33223 0.0956755 9.79269 0.0871682 10.2496 0.159882C13.0588 0.581175 14.6656 3.24469 14.4612 5.8265C14.3126 7.15279 13.8551 8.41402 13.1221 9.50117C12.0629 11.015 10.8362 12.404 9.45699 13.6514L9.30489 13.7841L9.09443 13.7013C7.24121 12.9709 5.46036 12.0561 3.77214 10.9683C2.60216 10.1812 1.60287 9.15691 0.852667 7.97233C-0.528772 5.64059 -0.253155 2.68026 2.1865 1.41618C2.37529 1.31439 2.57538 1.23242 2.78128 1.17187L2.8662 1.15848C3.05831 1.09865 3.25263 1.05433 3.45078 1.02308L3.52862 1.01081C3.97758 0.9537 4.42734 0.962004 4.8786 1.03561L4.92035 1.02903C4.95178 1.03776 4.97647 1.04899 4.99374 1.05995C5.1618 1.08458 5.32286 1.11681 5.48247 1.17086L5.77932 1.24649C5.85235 1.27024 5.93758 1.3107 6.01124 1.34566C6.05792 1.36781 6.09994 1.38776 6.13128 1.39985C6.14441 1.40472 6.15773 1.40959 6.17117 1.4145C6.24008 1.43968 6.31185 1.46592 6.37464 1.4976C7.02134 0.784163 7.90039 0.314252 8.88569 0.166088ZM11.9513 4.86825C12.2397 4.81486 12.4333 4.54738 12.3853 4.25173L12.3658 4.1691C12.1568 3.19304 11.3474 2.40671 10.3533 2.21056C10.04 2.15841 9.75782 2.36207 9.72069 2.67041C9.69065 2.97764 9.92193 3.27247 10.2436 3.32906C10.7367 3.42416 11.144 3.8144 11.2589 4.29971L11.264 4.32124C11.2881 4.48235 11.3733 4.62809 11.5003 4.7305C11.6273 4.83291 11.7922 4.87821 11.9513 4.86825Z" fill="#F32D12"/>
</svg>
