<svg width="22" height="26" viewBox="0 0 22 26" fill="none" xmlns="http://www.w3.org/2000/svg">
<path fill-rule="evenodd" clip-rule="evenodd" d="M17.9034 7.42414V9.33233C20.0563 10.0014 21.625 11.9417 21.625 14.2592V20.4031C21.625 23.2721 19.2358 25.5983 16.2903 25.5983H5.711C2.7642 25.5983 0.375 23.2721 0.375 20.4031V14.2592C0.375 11.9417 1.94493 10.0014 4.09661 9.33233V7.42414C4.10931 3.71411 7.19583 0.708984 10.9809 0.708984C14.8169 0.708984 17.9034 3.71411 17.9034 7.42414ZM11.0064 2.87317C13.5848 2.87317 15.6806 4.91368 15.6806 7.42413V9.06397H6.31941V7.3994C6.33211 4.90132 8.4279 2.87317 11.0064 2.87317ZM12.1114 18.6977C12.1114 19.3036 11.616 19.7859 10.9936 19.7859C10.384 19.7859 9.8886 19.3036 9.8886 18.6977V15.9523C9.8886 15.3586 10.384 14.8763 10.9936 14.8763C11.616 14.8763 12.1114 15.3586 12.1114 15.9523V18.6977Z" fill="white"/>
</svg>
