<svg width="22" height="18" viewBox="0 0 22 18" fill="none" xmlns="http://www.w3.org/2000/svg">
<path fill-rule="evenodd" clip-rule="evenodd" d="M6.96504 9.19732C6.96504 11.3963 8.76511 13.1854 10.9875 13.1854C13.1999 13.1854 15 11.3963 15 9.19732C15 6.98837 13.1999 5.19921 10.9875 5.19921C8.76511 5.19921 6.96504 6.98837 6.96504 9.19732ZM16.9006 3.06017C18.6604 4.41953 20.1588 6.40859 21.2348 8.89741C21.3153 9.08732 21.3153 9.30722 21.2348 9.48713C19.0828 14.4648 15.2514 17.4434 10.9875 17.4434H10.9775C6.72369 17.4434 2.89227 14.4648 0.740238 9.48713C0.659789 9.30722 0.659789 9.08732 0.740238 8.89741C2.89227 3.91977 6.72369 0.951172 10.9775 0.951172H10.9875C13.1194 0.951172 15.1407 1.69082 16.9006 3.06017ZM10.9887 11.6838C12.3664 11.6838 13.4927 10.5644 13.4927 9.19502C13.4927 7.81567 12.3664 6.6962 10.9887 6.6962C10.8681 6.6962 10.7474 6.70619 10.6368 6.72619C10.5965 7.82566 9.69148 8.70525 8.57524 8.70525H8.52496C8.49479 8.86517 8.47468 9.0251 8.47468 9.19502C8.47468 10.5644 9.60097 11.6838 10.9887 11.6838Z" fill="white" fill-opacity="0.86"/>
</svg>
