<svg width="15" height="12" viewBox="0 0 15 12" fill="none" xmlns="http://www.w3.org/2000/svg">
<path fill-rule="evenodd" clip-rule="evenodd" d="M4.66901 6.4213C5.0196 7.90248 6.5407 8.91275 8.06651 8.67216C9.58541 8.43265 10.536 7.03264 10.1854 5.55146C9.8332 4.06354 8.31211 3.05327 6.7932 3.29278C5.2674 3.53337 4.31682 4.93339 4.66901 6.4213ZM10.5118 1.21185C11.9367 1.93697 13.2826 3.11456 14.4181 4.6745C14.5036 4.79371 14.5387 4.94183 14.5122 5.07172C13.8283 8.65755 11.6727 11.0787 8.7454 11.5402L8.73849 11.5413C5.81806 12.0018 2.71269 10.4103 0.441591 7.29042C0.357673 7.17794 0.322613 7.02982 0.347567 6.89319C1.03142 3.30737 3.18858 0.892993 6.10902 0.432489L6.11592 0.4314C7.5796 0.200603 9.08525 0.479997 10.5118 1.21185ZM7.82795 7.66064C8.77381 7.51149 9.36858 6.63551 9.15026 5.71314C8.93034 4.78403 7.97859 4.15191 7.03273 4.30105C6.94988 4.31412 6.86863 4.33391 6.79587 4.35936C6.94355 5.1043 6.46242 5.79475 5.69606 5.91559L5.66154 5.92104C5.66633 6.03202 5.67802 6.14192 5.70511 6.25638C5.92344 7.17875 6.87518 7.81087 7.82795 7.66064Z" fill="#EEEEEE" fill-opacity="0.7"/>
</svg>
