<svg width="22" height="18" viewBox="0 0 22 18" fill="none" xmlns="http://www.w3.org/2000/svg">
<path fill-rule="evenodd" clip-rule="evenodd" d="M6.96508 9.19724C6.96508 11.3962 8.76515 13.1854 10.9876 13.1854C13.1999 13.1854 15 11.3962 15 9.19724C15 6.98828 13.1999 5.19913 10.9876 5.19913C8.76515 5.19913 6.96508 6.98828 6.96508 9.19724ZM16.9006 3.06017C18.6605 4.41953 20.1588 6.40859 21.2348 8.89741C21.3153 9.08732 21.3153 9.30722 21.2348 9.48713C19.0828 14.4648 15.2514 17.4434 10.9876 17.4434H10.9775C6.72372 17.4434 2.8923 14.4648 0.740269 9.48713C0.659819 9.30722 0.659819 9.08732 0.740269 8.89741C2.8923 3.91977 6.72372 0.951172 10.9775 0.951172H10.9876C13.1195 0.951172 15.1408 1.69082 16.9006 3.06017ZM10.9888 11.6839C12.3665 11.6839 13.4928 10.5645 13.4928 9.1951C13.4928 7.81575 12.3665 6.69628 10.9888 6.69628C10.8681 6.69628 10.7474 6.70628 10.6368 6.72627C10.5966 7.82575 9.69154 8.70533 8.5753 8.70533H8.52502C8.49485 8.86526 8.47474 9.02518 8.47474 9.1951C8.47474 10.5645 9.60104 11.6839 10.9888 11.6839Z" fill="white" fill-opacity="0.86"/>
</svg>
