<svg width="22" height="18" viewBox="0 0 22 18" fill="none" xmlns="http://www.w3.org/2000/svg">
<path fill-rule="evenodd" clip-rule="evenodd" d="M6.96508 9.19732C6.96508 11.3963 8.76515 13.1854 10.9876 13.1854C13.1999 13.1854 15 11.3963 15 9.19732C15 6.98837 13.1999 5.19921 10.9876 5.19921C8.76515 5.19921 6.96508 6.98837 6.96508 9.19732ZM16.9006 3.06017C18.6605 4.41953 20.1588 6.40859 21.2348 8.89741C21.3153 9.08732 21.3153 9.30722 21.2348 9.48713C19.0828 14.4648 15.2514 17.4434 10.9876 17.4434H10.9775C6.72372 17.4434 2.8923 14.4648 0.740269 9.48713C0.659819 9.30722 0.659819 9.08732 0.740269 8.89741C2.8923 3.91977 6.72372 0.951172 10.9775 0.951172H10.9876C13.1195 0.951172 15.1408 1.69082 16.9006 3.06017ZM10.9888 11.6838C12.3665 11.6838 13.4928 10.5644 13.4928 9.19502C13.4928 7.81567 12.3665 6.6962 10.9888 6.6962C10.8681 6.6962 10.7474 6.70619 10.6368 6.72619C10.5966 7.82566 9.6915 8.70525 8.57526 8.70525H8.52498C8.49481 8.86517 8.4747 9.0251 8.4747 9.19502C8.4747 10.5644 9.60099 11.6838 10.9888 11.6838Z" fill="white" fill-opacity="0.86"/>
</svg>
