<svg width="21" height="21" viewBox="0 0 21 21" fill="none" xmlns="http://www.w3.org/2000/svg">
<path fill-rule="evenodd" clip-rule="evenodd" d="M10.3691 20.6769C4.67934 20.6769 0.0615234 16.0694 0.0615234 10.3693C0.0615234 4.67946 4.67934 0.0616455 10.3691 0.0616455C16.0693 0.0616455 20.6768 4.67946 20.6768 10.3693C20.6768 16.0694 16.0693 20.6769 10.3691 20.6769ZM13.6573 14.1934C13.781 14.2656 13.915 14.3068 14.0593 14.3068C14.317 14.3068 14.5747 14.1728 14.719 13.9254C14.9354 13.5646 14.822 13.0905 14.451 12.8637L10.7815 10.6785V5.91638C10.7815 5.48346 10.431 5.1433 10.0084 5.1433C9.58577 5.1433 9.23532 5.48346 9.23532 5.91638V11.1217C9.23532 11.3897 9.37962 11.6371 9.6167 11.7814L13.6573 14.1934Z" fill="white" fill-opacity="0.86"/>
</svg>
