<svg width="16" height="15" viewBox="0 0 16 15" fill="none" xmlns="http://www.w3.org/2000/svg">
<path fill-rule="evenodd" clip-rule="evenodd" d="M9.57174 14.6027C5.6654 15.2187 1.76042 12.6151 0.851611 8.77557C-0.0555569 4.94301 2.37856 1.33262 6.2849 0.716655C10.1983 0.099574 14.0979 2.71125 15.005 6.54381C15.9138 10.3833 13.4852 13.9856 9.57174 14.6027ZM10.7955 9.87958C10.8919 9.91479 10.9905 9.92806 11.0896 9.91243C11.2665 9.88454 11.422 9.76638 11.4817 9.58413C11.5727 9.31769 11.4193 9.01058 11.1284 8.89801L8.26068 7.82334L7.50142 4.61566C7.43239 4.32405 7.13755 4.13287 6.84741 4.17862C6.55726 4.22437 6.37089 4.49143 6.43991 4.78304L7.26984 8.28927C7.31257 8.46979 7.45108 8.6208 7.63685 8.69234L10.7955 9.87958Z" fill="#EEEEEE" fill-opacity="0.7"/>
</svg>
