<svg width="26" height="19" viewBox="0 0 26 19" fill="none" xmlns="http://www.w3.org/2000/svg">
<path d="M25.654 8.83838L17.3812 0.998241C17.1583 0.794221 16.8597 0.681328 16.5499 0.68388C16.24 0.686432 15.9436 0.804224 15.7245 1.01188C15.5053 1.21955 15.381 1.50046 15.3784 1.79413C15.3757 2.08779 15.4948 2.37071 15.7101 2.58195L21.9655 8.51022H1.18183C0.868389 8.51022 0.567786 8.62822 0.34615 8.83826C0.124514 9.04831 0 9.33319 0 9.63024C0 9.92729 0.124514 10.2122 0.34615 10.4222C0.567786 10.6323 0.868389 10.7503 1.18183 10.7503H21.9655L15.7101 16.6785C15.5972 16.7818 15.5072 16.9054 15.4452 17.0421C15.3833 17.1787 15.3507 17.3257 15.3493 17.4744C15.3479 17.6231 15.3778 17.7706 15.4373 17.9083C15.4967 18.0459 15.5844 18.171 15.6954 18.2761C15.8064 18.3813 15.9383 18.4644 16.0836 18.5208C16.2288 18.5771 16.3844 18.6054 16.5414 18.6041C16.6983 18.6028 16.8534 18.5719 16.9976 18.5132C17.1417 18.4545 17.2721 18.3692 17.3812 18.2622L25.654 10.4221C25.8755 10.2121 26 9.92723 26 9.63024C26 9.33325 25.8755 9.04842 25.654 8.83838V8.83838Z" fill="white" fill-opacity="0.8"/>
</svg>
