<svg width="26" height="19" viewBox="0 0 26 19" fill="none" xmlns="http://www.w3.org/2000/svg">
<path d="M0.346022 8.83838L8.61883 0.998241C8.84173 0.794221 9.14026 0.681328 9.45013 0.68388C9.76 0.686432 10.0564 0.804224 10.2755 1.01188C10.4947 1.21955 10.619 1.50046 10.6216 1.79413C10.6243 2.08779 10.5052 2.37071 10.2899 2.58195L4.03451 8.51022H24.8182C25.1316 8.51022 25.4322 8.62822 25.6539 8.83826C25.8755 9.04831 26 9.33319 26 9.63024C26 9.92729 25.8755 10.2122 25.6539 10.4222C25.4322 10.6323 25.1316 10.7503 24.8182 10.7503H4.03451L10.2899 16.6785C10.4028 16.7818 10.4928 16.9054 10.5548 17.0421C10.6167 17.1787 10.6493 17.3257 10.6507 17.4744C10.6521 17.6231 10.6222 17.7706 10.5627 17.9083C10.5033 18.0459 10.4156 18.171 10.3046 18.2761C10.1936 18.3813 10.0617 18.4644 9.91643 18.5208C9.77118 18.5771 9.61556 18.6054 9.45864 18.6041C9.30172 18.6028 9.14664 18.5719 9.00245 18.5132C8.85826 18.4545 8.72785 18.3692 8.61883 18.2622L0.346022 10.4221C0.124463 10.2121 -7.34472e-07 9.92723 -7.34472e-07 9.63024C-7.34472e-07 9.33325 0.124463 9.04842 0.346022 8.83838V8.83838Z" fill="white" fill-opacity="0.8"/>
</svg>
