<svg width="26" height="19" viewBox="0 0 26 19" fill="none" xmlns="http://www.w3.org/2000/svg">
<path d="M25.654 8.52515L17.3812 0.685009C17.1583 0.480988 16.8597 0.368096 16.5499 0.370648C16.24 0.3732 15.9436 0.490991 15.7245 0.698652C15.5053 0.906313 15.381 1.18723 15.3784 1.48089C15.3757 1.77456 15.4948 2.05748 15.7101 2.26872L21.9655 8.19699H1.18183C0.868389 8.19699 0.567786 8.31499 0.34615 8.52503C0.124514 8.73508 0 9.01996 0 9.31701C0 9.61405 0.124514 9.89893 0.34615 10.109C0.567786 10.319 0.868389 10.437 1.18183 10.437H21.9655L15.7101 16.3653C15.5972 16.4686 15.5072 16.5922 15.4452 16.7288C15.3833 16.8655 15.3507 17.0125 15.3493 17.1612C15.3479 17.3099 15.3778 17.4574 15.4373 17.595C15.4967 17.7327 15.5844 17.8577 15.6954 17.9629C15.8064 18.068 15.9383 18.1512 16.0836 18.2075C16.2288 18.2638 16.3844 18.2922 16.5414 18.2909C16.6983 18.2896 16.8534 18.2587 16.9976 18.2C17.1417 18.1413 17.2721 18.056 17.3812 17.949L25.654 10.1089C25.8755 9.89883 26 9.61399 26 9.31701C26 9.02002 25.8755 8.73519 25.654 8.52515V8.52515Z" fill="white"/>
</svg>
