<svg width="26" height="23" viewBox="0 0 26 23" fill="none" xmlns="http://www.w3.org/2000/svg">
<path fill-rule="evenodd" clip-rule="evenodd" d="M20.2111 7.0975H25.5C25.5 2.86979 22.9556 0.400024 18.6444 0.400024H7.35556C3.04444 0.400024 0.5 2.86979 0.5 7.04357V16.1569C0.5 20.3307 3.04444 22.8004 7.35556 22.8004H18.6444C22.9556 22.8004 25.5 20.3307 25.5 16.1569V15.7686H20.2111C17.7565 15.7686 15.7667 13.8372 15.7667 11.4546C15.7667 9.07208 17.7565 7.14064 20.2111 7.14064V7.0975ZM20.2111 8.95252H24.5667C25.0821 8.95252 25.5 9.35812 25.5 9.85845V13.0077C25.494 13.5056 25.0796 13.9078 24.5667 13.9136H20.3111C19.0685 13.9298 17.9819 13.104 17.7 11.9292C17.5588 11.1999 17.757 10.4473 18.2413 9.87318C18.7257 9.29904 19.4467 8.96205 20.2111 8.95252ZM20.4 12.2635H20.8111C21.3389 12.2635 21.7667 11.8482 21.7667 11.336C21.7667 10.8237 21.3389 10.4085 20.8111 10.4085H20.4C20.1476 10.4056 19.9045 10.5009 19.725 10.6731C19.5455 10.8454 19.4444 11.0802 19.4444 11.3252C19.4444 11.8392 19.8705 12.2576 20.4 12.2635ZM6.42222 7.0975H13.4778C14.0055 7.0975 14.4333 6.68224 14.4333 6.16999C14.4333 5.65774 14.0055 5.24248 13.4778 5.24248H6.42222C5.89879 5.24245 5.47275 5.65117 5.46667 6.1592C5.46663 6.67323 5.89269 7.09159 6.42222 7.0975Z" fill="white"/>
</svg>
